<?xml version="1.0" encoding="UTF-8" standalone="no"?>
<!DOCTYPE svg PUBLIC "-//W3C//DTD SVG 1.1//EN" "http://www.w3.org/Graphics/SVG/1.1/DTD/svg11.dtd">
<svg width="100%" height="100%" viewBox="0 0 2222 2500" version="1.1" xmlns="http://www.w3.org/2000/svg" xmlns:xlink="http://www.w3.org/1999/xlink" xml:space="preserve" xmlns:serif="http://www.serif.com/" style="fill-rule:evenodd;clip-rule:evenodd;stroke-linejoin:round;stroke-miterlimit:2;">
    <path d="M2221.89,743.731C2221.87,701.695 2212.89,664.555 2194.73,632.683C2176.89,601.332 2150.17,575.068 2114.34,554.288C1818.53,383.559 1522.43,213.35 1226.72,42.447C1147,-3.616 1069.69,-1.941 990.561,44.791C872.821,114.298 283.331,452.354 107.672,554.193C35.335,596.116 0.13,660.267 0.113,743.653C0,1087 0.113,1430.34 0,1773.7C0.017,1814.81 8.619,1851.23 25.978,1882.63C43.824,1914.92 70.913,1941.91 107.576,1963.16C283.244,2065 872.812,2403.03 990.526,2472.55C1069.69,2519.31 1147,2520.97 1226.74,2474.89C1522.46,2303.98 1818.58,2133.78 2114.43,1963.05C2151.1,1941.81 2178.18,1914.8 2196.03,1882.54C2213.36,1851.14 2221.98,1814.72 2222,1773.6C2222,1773.6 2222,1087.09 2221.89,743.731ZM1340.63,1102.17L1686.42,1104.61C1686.42,960.532 1540.58,607.703 1122.48,607.703C856.086,607.703 497.962,777.061 497.962,1263.97C497.962,1750.88 849.03,1909.66 1122.48,1909.66C1565.29,1909.66 1671.12,1603.25 1671.12,1430.09L1341.23,1411.23C1341.23,1411.23 1350.06,1611.51 1120.71,1611.51C909.015,1611.51 873.689,1352.18 873.689,1263.97C873.689,1129.9 921.366,914.669 1120.71,914.669C1320.07,914.669 1340.63,1102.17 1340.63,1102.17Z" style="fill:rgb(169,185,203);"/>
    <path d="M640.417,1703.22L282.376,2061.26C224.008,2027.72 165.684,1994.1 107.402,1960.41C70.8,1939.22 43.754,1912.3 25.935,1880.09C8.602,1848.77 0.017,1812.44 0,1771.44C0.113,1428.98 0,1086.53 0.113,744.07C0.13,660.901 35.274,596.914 107.498,555.104C282.871,453.526 871.397,116.346 988.946,47.021C1067.95,0.411 1145.12,-1.264 1224.71,44.687C1451.78,175.793 1679.06,306.527 1906.28,437.364L1552.13,791.505C1462.96,690.082 1324.51,607.703 1122.48,607.703C856.086,607.703 497.962,777.061 497.962,1263.97C497.962,1459.81 554.753,1602.56 640.417,1703.22ZM904.681,1438.96C880.254,1371.83 873.689,1302 873.689,1263.97C873.689,1129.9 921.366,914.669 1120.71,914.669C1233.89,914.669 1289.44,975.097 1316.31,1027.33L904.681,1438.96Z" style="fill:rgb(127,139,153);fill-rule:nonzero;"/>
</svg>
