<?xml version="1.0" encoding="UTF-8" standalone="no"?>
<!DOCTYPE svg PUBLIC "-//W3C//DTD SVG 1.1//EN" "http://www.w3.org/Graphics/SVG/1.1/DTD/svg11.dtd">
<svg width="100%" height="100%" viewBox="0 0 16 16" version="1.1" xmlns="http://www.w3.org/2000/svg" xmlns:xlink="http://www.w3.org/1999/xlink" xml:space="preserve" xmlns:serif="http://www.serif.com/" style="fill-rule:evenodd;clip-rule:evenodd;stroke-linejoin:round;stroke-miterlimit:2;">
    <g transform="matrix(0.0496356,0,0,0.0496356,1.98737,0.0491206)">
        <g id="Ebene-1" serif:id="Ebene 1">
            <g id="Ebene_x0020_1">
                <g id="_198302696">
                    <path id="_227268128" d="M82.626,243.321C82.626,243.321 70.687,250.588 90.931,252.665C115.328,255.779 128.306,255.26 155.298,250.069C155.298,250.069 162.565,254.741 172.427,258.375C111.695,284.329 34.87,256.817 82.626,243.321L82.626,243.321ZM74.84,209.581C74.84,209.581 61.863,219.443 82.107,221.519C108.58,224.115 129.344,224.634 165.16,217.367C165.16,217.367 169.832,222.558 177.618,225.153C104.428,246.955 22.412,227.23 74.84,209.581L74.84,209.581ZM218.107,268.756C218.107,268.756 226.931,276.024 208.244,281.733C173.466,292.115 62.381,295.229 31.236,281.733C20.336,277.062 41.099,270.313 47.847,269.275C54.595,267.718 58.228,267.718 58.228,267.718C46.29,259.413 -21.191,284.848 23.969,292.115C148.03,312.359 250.29,283.291 218.106,268.756L218.107,268.756ZM88.336,174.283C88.336,174.283 31.756,187.779 68.092,192.451C83.664,194.527 114.29,194.008 142.84,191.932C166.198,189.855 189.558,185.703 189.558,185.703C189.558,185.703 181.252,189.336 175.542,192.97C117.924,208.023 7.359,201.275 39.023,185.703C66.015,172.726 88.335,174.283 88.335,174.283L88.336,174.283ZM189.558,230.863C247.695,200.756 220.703,171.688 202.016,175.321C197.344,176.359 195.268,177.398 195.268,177.398C195.268,177.398 196.825,174.283 200.458,173.245C237.313,160.268 266.382,212.176 188.52,232.42C188.52,232.42 189.038,231.901 189.558,230.863L189.558,230.863ZM94.046,312.878C150.107,316.512 235.756,310.802 237.832,284.329C237.832,284.329 233.68,294.711 191.634,302.496C143.878,311.321 84.703,310.283 49.924,304.573C49.924,304.573 57.191,310.802 94.046,312.878L94.046,312.878Z" style="fill:rgb(78,120,150);fill-rule:nonzero;"/>
                    <path id="_230367536" d="M154.26,2.985C154.26,2.985 186.443,35.688 123.634,85.001C73.283,124.97 112.214,147.809 123.634,173.764C94.046,147.291 72.764,123.932 87.298,102.13C108.581,69.947 167.237,54.375 154.26,2.985L154.26,2.985ZM137.65,151.962C152.702,169.092 133.497,184.665 133.497,184.665C133.497,184.665 171.909,164.94 154.26,140.543C138.168,117.184 125.71,105.764 193.191,66.833C193.191,66.833 86.779,93.306 137.649,151.962L137.65,151.962Z" style="fill:rgb(245,130,25);fill-rule:nonzero;"/>
                </g>
            </g>
        </g>
    </g>
</svg>
